<?xml version="1.0" encoding="UTF-8" standalone="no"?>
<!DOCTYPE svg PUBLIC "-//W3C//DTD SVG 1.1//EN"
 "http://www.w3.org/Graphics/SVG/1.1/DTD/svg11.dtd">
<!-- Generated by graphviz version 2.40.1 (20161225.0304)
 -->
<!-- Title: dependencies Pages: 1 -->
<svg width="837pt" height="284pt"
 viewBox="0.00 0.00 837.00 284.00" xmlns="http://www.w3.org/2000/svg" xmlns:xlink="http://www.w3.org/1999/xlink">
<g id="graph0" class="graph" transform="scale(1 1) rotate(0) translate(4 280)">
<title>dependencies</title>
<polygon fill="#ffffff" stroke="transparent" points="-4,4 -4,-280 833,-280 833,4 -4,4"/>
<text text-anchor="start" x="393.5091" y="-42.4" font-family="sans-serif" font-weight="bold" font-size="14.00" fill="#000000">Legend</text>
<polygon fill="#ffffb3" stroke="transparent" points="180.5,-10 180.5,-30 200.5,-30 200.5,-10 180.5,-10"/>
<text text-anchor="start" x="204.129" y="-15.4" font-family="sans-serif" font-size="14.00" fill="#000000"> &#160;Declarations</text>
<polygon fill="#8dd3c7" stroke="transparent" points="293.5,-10 293.5,-30 313.5,-30 313.5,-10 293.5,-10"/>
<text text-anchor="start" x="317.2251" y="-15.4" font-family="sans-serif" font-size="14.00" fill="#000000"> &#160;Module</text>
<polygon fill="#80b1d3" stroke="transparent" points="379.5,-10 379.5,-30 399.5,-30 399.5,-10 379.5,-10"/>
<text text-anchor="start" x="403.2812" y="-15.4" font-family="sans-serif" font-size="14.00" fill="#000000"> &#160;Bootstrap</text>
<polygon fill="#fdb462" stroke="transparent" points="476.5,-10 476.5,-30 496.5,-30 496.5,-10 476.5,-10"/>
<text text-anchor="start" x="500.1732" y="-15.4" font-family="sans-serif" font-size="14.00" fill="#000000"> &#160;Providers</text>
<polygon fill="#fb8072" stroke="transparent" points="572.5,-10 572.5,-30 592.5,-30 592.5,-10 572.5,-10"/>
<text text-anchor="start" x="596.2258" y="-15.4" font-family="sans-serif" font-size="14.00" fill="#000000"> &#160;Exports</text>
<g id="clust1" class="cluster">
<title>cluster_CoreModule</title>
<polygon fill="none" stroke="#000000" stroke-dasharray="1,5" points="8,-70 8,-268 821,-268 821,-70 8,-70"/>
</g>
<g id="clust2" class="cluster">
<title>cluster_CoreModule_declarations</title>
<polygon fill="none" stroke="#000000" points="198,-78 198,-130 813,-130 813,-78 198,-78"/>
</g>
<g id="clust8" class="cluster">
<title>cluster_CoreModule_exports</title>
<polygon fill="none" stroke="#000000" points="111,-208 111,-260 738,-260 738,-208 111,-208"/>
</g>
<g id="clust10" class="cluster">
<title>cluster_CoreModule_providers</title>
<polygon fill="none" stroke="#000000" points="16,-78 16,-130 190,-130 190,-78 16,-78"/>
</g>
<!-- ListViewComponent -->
<g id="node1" class="node">
<title>ListViewComponent</title>
<polygon fill="#ffffb3" stroke="#000000" points="804.9299,-122 671.0701,-122 671.0701,-86 804.9299,-86 804.9299,-122"/>
<text text-anchor="middle" x="738" y="-99.8" font-family="Times,serif" font-size="14.00" fill="#000000">ListViewComponent</text>
</g>
<!-- CoreModule -->
<g id="node5" class="node">
<title>CoreModule</title>
<polygon fill="#8dd3c7" stroke="#000000" points="464.2619,-187 461.2619,-191 440.2619,-191 437.2619,-187 377.7381,-187 377.7381,-151 464.2619,-151 464.2619,-187"/>
<text text-anchor="middle" x="421" y="-164.8" font-family="Times,serif" font-size="14.00" fill="#000000">CoreModule</text>
</g>
<!-- ListViewComponent&#45;&gt;CoreModule -->
<g id="edge1" class="edge">
<title>ListViewComponent&#45;&gt;CoreModule</title>
<path fill="none" stroke="#000000" d="M700.875,-122.1061C700.875,-141.3391 700.875,-169 700.875,-169 700.875,-169 474.4234,-169 474.4234,-169"/>
<polygon fill="#000000" stroke="#000000" points="474.4234,-165.5001 464.4234,-169 474.4234,-172.5001 474.4234,-165.5001"/>
</g>
<!-- MostPopularComponent -->
<g id="node2" class="node">
<title>MostPopularComponent</title>
<polygon fill="#ffffb3" stroke="#000000" points="652.661,-122 499.339,-122 499.339,-86 652.661,-86 652.661,-122"/>
<text text-anchor="middle" x="576" y="-99.8" font-family="Times,serif" font-size="14.00" fill="#000000">MostPopularComponent</text>
</g>
<!-- MostPopularComponent&#45;&gt;CoreModule -->
<g id="edge2" class="edge">
<title>MostPopularComponent&#45;&gt;CoreModule</title>
<path fill="none" stroke="#000000" d="M537.375,-122.027C537.375,-138.3976 537.375,-160 537.375,-160 537.375,-160 474.3338,-160 474.3338,-160"/>
<polygon fill="#000000" stroke="#000000" points="474.3338,-156.5001 464.3338,-160 474.3337,-163.5001 474.3338,-156.5001"/>
</g>
<!-- SearchComponent -->
<g id="node3" class="node">
<title>SearchComponent</title>
<polygon fill="#ffffb3" stroke="#000000" points="480.9201,-122 361.0799,-122 361.0799,-86 480.9201,-86 480.9201,-122"/>
<text text-anchor="middle" x="421" y="-99.8" font-family="Times,serif" font-size="14.00" fill="#000000">SearchComponent</text>
</g>
<!-- SearchComponent&#45;&gt;CoreModule -->
<g id="edge3" class="edge">
<title>SearchComponent&#45;&gt;CoreModule</title>
<path fill="none" stroke="#000000" d="M421,-122.1061C421,-122.1061 421,-140.991 421,-140.991"/>
<polygon fill="#000000" stroke="#000000" points="417.5001,-140.9909 421,-150.991 424.5001,-140.991 417.5001,-140.9909"/>
</g>
<!-- SongCardComponent -->
<g id="node4" class="node">
<title>SongCardComponent</title>
<polygon fill="#ffffb3" stroke="#000000" points="343.8272,-122 206.1728,-122 206.1728,-86 343.8272,-86 343.8272,-122"/>
<text text-anchor="middle" x="275" y="-99.8" font-family="Times,serif" font-size="14.00" fill="#000000">SongCardComponent</text>
</g>
<!-- SongCardComponent&#45;&gt;CoreModule -->
<g id="edge4" class="edge">
<title>SongCardComponent&#45;&gt;CoreModule</title>
<path fill="none" stroke="#000000" d="M310.6019,-122.027C310.6019,-138.3976 310.6019,-160 310.6019,-160 310.6019,-160 367.6846,-160 367.6846,-160"/>
<polygon fill="#000000" stroke="#000000" points="367.6846,-163.5001 377.6846,-160 367.6845,-156.5001 367.6846,-163.5001"/>
</g>
<!-- ListViewComponent  -->
<g id="node6" class="node">
<title>ListViewComponent </title>
<polygon fill="#fb8072" stroke="#000000" points="730.4292,-252 593.5708,-252 593.5708,-216 730.4292,-216 730.4292,-252"/>
<text text-anchor="middle" x="662" y="-229.8" font-family="Times,serif" font-size="14.00" fill="#000000">ListViewComponent </text>
</g>
<!-- CoreModule&#45;&gt;ListViewComponent  -->
<g id="edge5" class="edge">
<title>CoreModule&#45;&gt;ListViewComponent </title>
<path fill="none" stroke="#000000" stroke-dasharray="5,2" d="M464.3733,-178C523.7813,-178 623.1828,-178 623.1828,-178 623.1828,-178 623.1828,-205.973 623.1828,-205.973"/>
<polygon fill="#000000" stroke="#000000" points="619.6829,-205.973 623.1828,-215.973 626.6829,-205.973 619.6829,-205.973"/>
</g>
<!-- MostPopularComponent  -->
<g id="node7" class="node">
<title>MostPopularComponent </title>
<polygon fill="#fb8072" stroke="#000000" points="575.6607,-252 418.3393,-252 418.3393,-216 575.6607,-216 575.6607,-252"/>
<text text-anchor="middle" x="497" y="-229.8" font-family="Times,serif" font-size="14.00" fill="#000000">MostPopularComponent </text>
</g>
<!-- CoreModule&#45;&gt;MostPopularComponent  -->
<g id="edge6" class="edge">
<title>CoreModule&#45;&gt;MostPopularComponent </title>
<path fill="none" stroke="#000000" stroke-dasharray="5,2" d="M441.4003,-187.1061C441.4003,-187.1061 441.4003,-205.991 441.4003,-205.991"/>
<polygon fill="#000000" stroke="#000000" points="437.9003,-205.9909 441.4003,-215.991 444.9003,-205.991 437.9003,-205.9909"/>
</g>
<!-- SearchComponent  -->
<g id="node8" class="node">
<title>SearchComponent </title>
<polygon fill="#fb8072" stroke="#000000" points="400.4194,-252 277.5806,-252 277.5806,-216 400.4194,-216 400.4194,-252"/>
<text text-anchor="middle" x="339" y="-229.8" font-family="Times,serif" font-size="14.00" fill="#000000">SearchComponent </text>
</g>
<!-- CoreModule&#45;&gt;SearchComponent  -->
<g id="edge7" class="edge">
<title>CoreModule&#45;&gt;SearchComponent </title>
<path fill="none" stroke="#000000" stroke-dasharray="5,2" d="M389.0395,-187.1061C389.0395,-187.1061 389.0395,-205.991 389.0395,-205.991"/>
<polygon fill="#000000" stroke="#000000" points="385.5395,-205.9909 389.0395,-215.991 392.5395,-205.991 385.5395,-205.9909"/>
</g>
<!-- SongCardComponent  -->
<g id="node9" class="node">
<title>SongCardComponent </title>
<polygon fill="#fb8072" stroke="#000000" points="259.3269,-252 118.6731,-252 118.6731,-216 259.3269,-216 259.3269,-252"/>
<text text-anchor="middle" x="189" y="-229.8" font-family="Times,serif" font-size="14.00" fill="#000000">SongCardComponent </text>
</g>
<!-- CoreModule&#45;&gt;SongCardComponent  -->
<g id="edge8" class="edge">
<title>CoreModule&#45;&gt;SongCardComponent </title>
<path fill="none" stroke="#000000" stroke-dasharray="5,2" d="M377.3675,-178C321.7935,-178 232.875,-178 232.875,-178 232.875,-178 232.875,-205.973 232.875,-205.973"/>
<polygon fill="#000000" stroke="#000000" points="229.3751,-205.973 232.875,-215.973 236.3751,-205.973 229.3751,-205.973"/>
</g>
<!-- MusicApiService -->
<g id="node10" class="node">
<title>MusicApiService</title>
<ellipse fill="#fdb462" stroke="#000000" cx="103" cy="-104" rx="78.7279" ry="18"/>
<text text-anchor="middle" x="103" y="-99.8" font-family="Times,serif" font-size="14.00" fill="#000000">MusicApiService</text>
</g>
<!-- MusicApiService&#45;&gt;CoreModule -->
<g id="edge9" class="edge">
<title>MusicApiService&#45;&gt;CoreModule</title>
<path fill="none" stroke="#000000" d="M150.1002,-118.4256C150.1002,-137.5751 150.1002,-169 150.1002,-169 150.1002,-169 367.4753,-169 367.4753,-169"/>
<polygon fill="#000000" stroke="#000000" points="367.4753,-172.5001 377.4753,-169 367.4752,-165.5001 367.4753,-172.5001"/>
</g>
</g>
</svg>
