<?xml version="1.0" encoding="UTF-8" standalone="no"?>
<!DOCTYPE svg PUBLIC "-//W3C//DTD SVG 1.1//EN"
 "http://www.w3.org/Graphics/SVG/1.1/DTD/svg11.dtd">
<!-- Generated by graphviz version 2.40.1 (20161225.0304)
 -->
<!-- Title: dependencies Pages: 1 -->
<svg width="1159pt" height="284pt"
 viewBox="0.00 0.00 1159.00 284.00" xmlns="http://www.w3.org/2000/svg" xmlns:xlink="http://www.w3.org/1999/xlink">
<g id="graph0" class="graph" transform="scale(1 1) rotate(0) translate(4 280)">
<title>dependencies</title>
<polygon fill="#ffffff" stroke="transparent" points="-4,4 -4,-280 1155,-280 1155,4 -4,4"/>
<text text-anchor="start" x="554.5091" y="-42.4" font-family="sans-serif" font-weight="bold" font-size="14.00" fill="#000000">Legend</text>
<polygon fill="#ffffb3" stroke="transparent" points="341.5,-10 341.5,-30 361.5,-30 361.5,-10 341.5,-10"/>
<text text-anchor="start" x="365.129" y="-15.4" font-family="sans-serif" font-size="14.00" fill="#000000"> &#160;Declarations</text>
<polygon fill="#8dd3c7" stroke="transparent" points="454.5,-10 454.5,-30 474.5,-30 474.5,-10 454.5,-10"/>
<text text-anchor="start" x="478.2251" y="-15.4" font-family="sans-serif" font-size="14.00" fill="#000000"> &#160;Module</text>
<polygon fill="#80b1d3" stroke="transparent" points="540.5,-10 540.5,-30 560.5,-30 560.5,-10 540.5,-10"/>
<text text-anchor="start" x="564.2812" y="-15.4" font-family="sans-serif" font-size="14.00" fill="#000000"> &#160;Bootstrap</text>
<polygon fill="#fdb462" stroke="transparent" points="637.5,-10 637.5,-30 657.5,-30 657.5,-10 637.5,-10"/>
<text text-anchor="start" x="661.1732" y="-15.4" font-family="sans-serif" font-size="14.00" fill="#000000"> &#160;Providers</text>
<polygon fill="#fb8072" stroke="transparent" points="733.5,-10 733.5,-30 753.5,-30 753.5,-10 733.5,-10"/>
<text text-anchor="start" x="757.2258" y="-15.4" font-family="sans-serif" font-size="14.00" fill="#000000"> &#160;Exports</text>
<g id="clust1" class="cluster">
<title>cluster_AppModule</title>
<polygon fill="none" stroke="#000000" stroke-dasharray="1,5" points="8,-70 8,-268 1143,-268 1143,-70 8,-70"/>
</g>
<g id="clust2" class="cluster">
<title>cluster_AppModule_declarations</title>
<polygon fill="none" stroke="#000000" points="273,-78 273,-130 1135,-130 1135,-78 273,-78"/>
</g>
<g id="clust9" class="cluster">
<title>cluster_AppModule_imports</title>
<polygon fill="none" stroke="#000000" points="16,-78 16,-130 265,-130 265,-78 16,-78"/>
</g>
<g id="clust11" class="cluster">
<title>cluster_AppModule_bootstrap</title>
<polygon fill="none" stroke="#000000" points="506,-208 506,-260 630,-260 630,-208 506,-208"/>
</g>
<!-- AppComponent -->
<g id="node1" class="node">
<title>AppComponent</title>
<polygon fill="#ffffb3" stroke="#000000" points="1126.9399,-122 1021.0601,-122 1021.0601,-86 1126.9399,-86 1126.9399,-122"/>
<text text-anchor="middle" x="1074" y="-99.8" font-family="Times,serif" font-size="14.00" fill="#000000">AppComponent</text>
</g>
<!-- AppModule -->
<g id="node7" class="node">
<title>AppModule</title>
<polygon fill="#8dd3c7" stroke="#000000" points="609.6571,-187 606.6571,-191 585.6571,-191 582.6571,-187 526.3429,-187 526.3429,-151 609.6571,-151 609.6571,-187"/>
<text text-anchor="middle" x="568" y="-164.8" font-family="Times,serif" font-size="14.00" fill="#000000">AppModule</text>
</g>
<!-- AppComponent&#45;&gt;AppModule -->
<g id="edge1" class="edge">
<title>AppComponent&#45;&gt;AppModule</title>
<path fill="none" stroke="#000000" d="M1074,-122.2921C1074,-144.2057 1074,-178 1074,-178 1074,-178 619.8386,-178 619.8386,-178"/>
<polygon fill="#000000" stroke="#000000" points="619.8386,-174.5001 609.8386,-178 619.8386,-181.5001 619.8386,-174.5001"/>
</g>
<!-- ChatComponent -->
<g id="node2" class="node">
<title>ChatComponent</title>
<polygon fill="#ffffb3" stroke="#000000" points="1002.7744,-122 895.2256,-122 895.2256,-86 1002.7744,-86 1002.7744,-122"/>
<text text-anchor="middle" x="949" y="-99.8" font-family="Times,serif" font-size="14.00" fill="#000000">ChatComponent</text>
</g>
<!-- ChatComponent&#45;&gt;AppModule -->
<g id="edge2" class="edge">
<title>ChatComponent&#45;&gt;AppModule</title>
<path fill="none" stroke="#000000" d="M949,-122.1061C949,-141.3391 949,-169 949,-169 949,-169 619.8635,-169 619.8635,-169"/>
<polygon fill="#000000" stroke="#000000" points="619.8636,-165.5001 609.8635,-169 619.8635,-172.5001 619.8636,-165.5001"/>
</g>
<!-- DashboardComponent -->
<g id="node3" class="node">
<title>DashboardComponent</title>
<polygon fill="#ffffb3" stroke="#000000" points="876.9734,-122 735.0266,-122 735.0266,-86 876.9734,-86 876.9734,-122"/>
<text text-anchor="middle" x="806" y="-99.8" font-family="Times,serif" font-size="14.00" fill="#000000">DashboardComponent</text>
</g>
<!-- DashboardComponent&#45;&gt;AppModule -->
<g id="edge3" class="edge">
<title>DashboardComponent&#45;&gt;AppModule</title>
<path fill="none" stroke="#000000" d="M806,-122.027C806,-138.3976 806,-160 806,-160 806,-160 619.7288,-160 619.7288,-160"/>
<polygon fill="#000000" stroke="#000000" points="619.7288,-156.5001 609.7288,-160 619.7287,-163.5001 619.7288,-156.5001"/>
</g>
<!-- LastReleaseComponent -->
<g id="node4" class="node">
<title>LastReleaseComponent</title>
<polygon fill="#ffffb3" stroke="#000000" points="717.465,-122 568.535,-122 568.535,-86 717.465,-86 717.465,-122"/>
<text text-anchor="middle" x="643" y="-99.8" font-family="Times,serif" font-size="14.00" fill="#000000">LastReleaseComponent</text>
</g>
<!-- LastReleaseComponent&#45;&gt;AppModule -->
<g id="edge4" class="edge">
<title>LastReleaseComponent&#45;&gt;AppModule</title>
<path fill="none" stroke="#000000" d="M589.1729,-122.1061C589.1729,-122.1061 589.1729,-140.991 589.1729,-140.991"/>
<polygon fill="#000000" stroke="#000000" points="585.6729,-140.9909 589.1729,-150.991 592.6729,-140.991 585.6729,-140.9909"/>
</g>
<!-- MenuComponent -->
<g id="node5" class="node">
<title>MenuComponent</title>
<polygon fill="#ffffb3" stroke="#000000" points="550.9916,-122 437.0084,-122 437.0084,-86 550.9916,-86 550.9916,-122"/>
<text text-anchor="middle" x="494" y="-99.8" font-family="Times,serif" font-size="14.00" fill="#000000">MenuComponent</text>
</g>
<!-- MenuComponent&#45;&gt;AppModule -->
<g id="edge5" class="edge">
<title>MenuComponent&#45;&gt;AppModule</title>
<path fill="none" stroke="#000000" d="M538.5838,-122.1061C538.5838,-122.1061 538.5838,-140.991 538.5838,-140.991"/>
<polygon fill="#000000" stroke="#000000" points="535.0839,-140.9909 538.5838,-150.991 542.0839,-140.991 535.0839,-140.9909"/>
</g>
<!-- NotFoundComponent -->
<g id="node6" class="node">
<title>NotFoundComponent</title>
<polygon fill="#ffffb3" stroke="#000000" points="419.1122,-122 280.8878,-122 280.8878,-86 419.1122,-86 419.1122,-122"/>
<text text-anchor="middle" x="350" y="-99.8" font-family="Times,serif" font-size="14.00" fill="#000000">NotFoundComponent</text>
</g>
<!-- NotFoundComponent&#45;&gt;AppModule -->
<g id="edge6" class="edge">
<title>NotFoundComponent&#45;&gt;AppModule</title>
<path fill="none" stroke="#000000" d="M350,-122.027C350,-138.3976 350,-160 350,-160 350,-160 516.2253,-160 516.2253,-160"/>
<polygon fill="#000000" stroke="#000000" points="516.2254,-163.5001 526.2253,-160 516.2253,-156.5001 516.2254,-163.5001"/>
</g>
<!-- AppComponent  -->
<g id="node10" class="node">
<title>AppComponent </title>
<polygon fill="#80b1d3" stroke="#000000" points="622.439,-252 513.561,-252 513.561,-216 622.439,-216 622.439,-252"/>
<text text-anchor="middle" x="568" y="-229.8" font-family="Times,serif" font-size="14.00" fill="#000000">AppComponent </text>
</g>
<!-- AppModule&#45;&gt;AppComponent  -->
<g id="edge9" class="edge">
<title>AppModule&#45;&gt;AppComponent </title>
<path fill="none" stroke="#000000" stroke-dasharray="1,5" d="M568,-187.1061C568,-187.1061 568,-205.991 568,-205.991"/>
<polygon fill="#000000" stroke="#000000" points="564.5001,-205.9909 568,-215.991 571.5001,-205.991 564.5001,-205.9909"/>
</g>
<!-- AppRoutingModule -->
<g id="node8" class="node">
<title>AppRoutingModule</title>
<polygon fill="#8dd3c7" stroke="#000000" points="257.2744,-122 254.2744,-126 233.2744,-126 230.2744,-122 128.7256,-122 128.7256,-86 257.2744,-86 257.2744,-122"/>
<text text-anchor="middle" x="193" y="-99.8" font-family="Times,serif" font-size="14.00" fill="#000000">AppRoutingModule</text>
</g>
<!-- AppRoutingModule&#45;&gt;AppModule -->
<g id="edge7" class="edge">
<title>AppRoutingModule&#45;&gt;AppModule</title>
<path fill="none" stroke="#000000" d="M193,-122.1061C193,-141.3391 193,-169 193,-169 193,-169 516.0743,-169 516.0743,-169"/>
<polygon fill="#000000" stroke="#000000" points="516.0743,-172.5001 526.0743,-169 516.0743,-165.5001 516.0743,-172.5001"/>
</g>
<!-- CoreModule -->
<g id="node9" class="node">
<title>CoreModule</title>
<polygon fill="#8dd3c7" stroke="#000000" points="110.2619,-122 107.2619,-126 86.2619,-126 83.2619,-122 23.7381,-122 23.7381,-86 110.2619,-86 110.2619,-122"/>
<text text-anchor="middle" x="67" y="-99.8" font-family="Times,serif" font-size="14.00" fill="#000000">CoreModule</text>
</g>
<!-- CoreModule&#45;&gt;AppModule -->
<g id="edge8" class="edge">
<title>CoreModule&#45;&gt;AppModule</title>
<path fill="none" stroke="#000000" d="M67,-122.2921C67,-144.2057 67,-178 67,-178 67,-178 516.1467,-178 516.1467,-178"/>
<polygon fill="#000000" stroke="#000000" points="516.1468,-181.5001 526.1467,-178 516.1467,-174.5001 516.1468,-181.5001"/>
</g>
</g>
</svg>
