<?xml version="1.0" encoding="UTF-8" standalone="no"?>
<!DOCTYPE svg PUBLIC "-//W3C//DTD SVG 1.1//EN"
 "http://www.w3.org/Graphics/SVG/1.1/DTD/svg11.dtd">
<!-- Generated by graphviz version 2.40.1 (20161225.0304)
 -->
<!-- Title: dependencies Pages: 1 -->
<svg width="1841pt" height="360pt"
 viewBox="0.00 0.00 1841.00 360.00" xmlns="http://www.w3.org/2000/svg" xmlns:xlink="http://www.w3.org/1999/xlink">
<g id="graph0" class="graph" transform="scale(1 1) rotate(0) translate(4 356)">
<title>dependencies</title>
<polygon fill="#ffffff" stroke="transparent" points="-4,4 -4,-356 1837,-356 1837,4 -4,4"/>
<text text-anchor="start" x="895.5091" y="-42.4" font-family="sans-serif" font-weight="bold" font-size="14.00" fill="#000000">Legend</text>
<polygon fill="#ffffb3" stroke="transparent" points="682.5,-10 682.5,-30 702.5,-30 702.5,-10 682.5,-10"/>
<text text-anchor="start" x="706.129" y="-15.4" font-family="sans-serif" font-size="14.00" fill="#000000"> &#160;Declarations</text>
<polygon fill="#8dd3c7" stroke="transparent" points="795.5,-10 795.5,-30 815.5,-30 815.5,-10 795.5,-10"/>
<text text-anchor="start" x="819.2251" y="-15.4" font-family="sans-serif" font-size="14.00" fill="#000000"> &#160;Module</text>
<polygon fill="#80b1d3" stroke="transparent" points="881.5,-10 881.5,-30 901.5,-30 901.5,-10 881.5,-10"/>
<text text-anchor="start" x="905.2812" y="-15.4" font-family="sans-serif" font-size="14.00" fill="#000000"> &#160;Bootstrap</text>
<polygon fill="#fdb462" stroke="transparent" points="978.5,-10 978.5,-30 998.5,-30 998.5,-10 978.5,-10"/>
<text text-anchor="start" x="1002.1732" y="-15.4" font-family="sans-serif" font-size="14.00" fill="#000000"> &#160;Providers</text>
<polygon fill="#fb8072" stroke="transparent" points="1074.5,-10 1074.5,-30 1094.5,-30 1094.5,-10 1074.5,-10"/>
<text text-anchor="start" x="1098.2258" y="-15.4" font-family="sans-serif" font-size="14.00" fill="#000000"> &#160;Exports</text>
<g id="clust1" class="cluster">
<title>cluster_AppModule</title>
<polygon fill="none" stroke="#000000" stroke-dasharray="1,5" points="690,-146 690,-344 1825,-344 1825,-146 690,-146"/>
</g>
<g id="clust2" class="cluster">
<title>cluster_AppModule_declarations</title>
<polygon fill="none" stroke="#000000" points="955,-154 955,-206 1817,-206 1817,-154 955,-154"/>
</g>
<g id="clust9" class="cluster">
<title>cluster_AppModule_imports</title>
<polygon fill="none" stroke="#000000" points="698,-154 698,-206 947,-206 947,-154 698,-154"/>
</g>
<g id="clust11" class="cluster">
<title>cluster_AppModule_bootstrap</title>
<polygon fill="none" stroke="#000000" points="1188,-284 1188,-336 1312,-336 1312,-284 1188,-284"/>
</g>
<g id="clust19" class="cluster">
<title>cluster_CoreModule</title>
<polygon fill="none" stroke="#000000" stroke-dasharray="1,5" points="8,-70 8,-138 1456,-138 1456,-70 8,-70"/>
</g>
<g id="clust20" class="cluster">
<title>cluster_CoreModule_declarations</title>
<polygon fill="none" stroke="#000000" points="833,-78 833,-130 1448,-130 1448,-78 833,-78"/>
</g>
<g id="clust26" class="cluster">
<title>cluster_CoreModule_exports</title>
<polygon fill="none" stroke="#000000" points="198,-78 198,-130 825,-130 825,-78 198,-78"/>
</g>
<g id="clust28" class="cluster">
<title>cluster_CoreModule_providers</title>
<polygon fill="none" stroke="#000000" points="16,-78 16,-130 190,-130 190,-78 16,-78"/>
</g>
<!-- AppComponent -->
<g id="node1" class="node">
<title>AppComponent</title>
<polygon fill="#ffffb3" stroke="#000000" points="1808.9399,-198 1703.0601,-198 1703.0601,-162 1808.9399,-162 1808.9399,-198"/>
<text text-anchor="middle" x="1756" y="-175.8" font-family="Times,serif" font-size="14.00" fill="#000000">AppComponent</text>
</g>
<!-- AppModule -->
<g id="node7" class="node">
<title>AppModule</title>
<polygon fill="#8dd3c7" stroke="#000000" points="1291.6571,-263 1288.6571,-267 1267.6571,-267 1264.6571,-263 1208.3429,-263 1208.3429,-227 1291.6571,-227 1291.6571,-263"/>
<text text-anchor="middle" x="1250" y="-240.8" font-family="Times,serif" font-size="14.00" fill="#000000">AppModule</text>
</g>
<!-- AppComponent&#45;&gt;AppModule -->
<g id="edge1" class="edge">
<title>AppComponent&#45;&gt;AppModule</title>
<path fill="none" stroke="#000000" d="M1756,-198.2921C1756,-220.2057 1756,-254 1756,-254 1756,-254 1301.8386,-254 1301.8386,-254"/>
<polygon fill="#000000" stroke="#000000" points="1301.8386,-250.5001 1291.8386,-254 1301.8386,-257.5001 1301.8386,-250.5001"/>
</g>
<!-- ChatComponent -->
<g id="node2" class="node">
<title>ChatComponent</title>
<polygon fill="#ffffb3" stroke="#000000" points="1684.7744,-198 1577.2256,-198 1577.2256,-162 1684.7744,-162 1684.7744,-198"/>
<text text-anchor="middle" x="1631" y="-175.8" font-family="Times,serif" font-size="14.00" fill="#000000">ChatComponent</text>
</g>
<!-- ChatComponent&#45;&gt;AppModule -->
<g id="edge2" class="edge">
<title>ChatComponent&#45;&gt;AppModule</title>
<path fill="none" stroke="#000000" d="M1631,-198.1061C1631,-217.3391 1631,-245 1631,-245 1631,-245 1301.8635,-245 1301.8635,-245"/>
<polygon fill="#000000" stroke="#000000" points="1301.8636,-241.5001 1291.8635,-245 1301.8635,-248.5001 1301.8636,-241.5001"/>
</g>
<!-- DashboardComponent -->
<g id="node3" class="node">
<title>DashboardComponent</title>
<polygon fill="#ffffb3" stroke="#000000" points="1558.9734,-198 1417.0266,-198 1417.0266,-162 1558.9734,-162 1558.9734,-198"/>
<text text-anchor="middle" x="1488" y="-175.8" font-family="Times,serif" font-size="14.00" fill="#000000">DashboardComponent</text>
</g>
<!-- DashboardComponent&#45;&gt;AppModule -->
<g id="edge3" class="edge">
<title>DashboardComponent&#45;&gt;AppModule</title>
<path fill="none" stroke="#000000" d="M1488,-198.027C1488,-214.3976 1488,-236 1488,-236 1488,-236 1301.7288,-236 1301.7288,-236"/>
<polygon fill="#000000" stroke="#000000" points="1301.7288,-232.5001 1291.7288,-236 1301.7287,-239.5001 1301.7288,-232.5001"/>
</g>
<!-- LastReleaseComponent -->
<g id="node4" class="node">
<title>LastReleaseComponent</title>
<polygon fill="#ffffb3" stroke="#000000" points="1399.465,-198 1250.535,-198 1250.535,-162 1399.465,-162 1399.465,-198"/>
<text text-anchor="middle" x="1325" y="-175.8" font-family="Times,serif" font-size="14.00" fill="#000000">LastReleaseComponent</text>
</g>
<!-- LastReleaseComponent&#45;&gt;AppModule -->
<g id="edge4" class="edge">
<title>LastReleaseComponent&#45;&gt;AppModule</title>
<path fill="none" stroke="#000000" d="M1271.1729,-198.1061C1271.1729,-198.1061 1271.1729,-216.991 1271.1729,-216.991"/>
<polygon fill="#000000" stroke="#000000" points="1267.6729,-216.9909 1271.1729,-226.991 1274.6729,-216.991 1267.6729,-216.9909"/>
</g>
<!-- MenuComponent -->
<g id="node5" class="node">
<title>MenuComponent</title>
<polygon fill="#ffffb3" stroke="#000000" points="1232.9916,-198 1119.0084,-198 1119.0084,-162 1232.9916,-162 1232.9916,-198"/>
<text text-anchor="middle" x="1176" y="-175.8" font-family="Times,serif" font-size="14.00" fill="#000000">MenuComponent</text>
</g>
<!-- MenuComponent&#45;&gt;AppModule -->
<g id="edge5" class="edge">
<title>MenuComponent&#45;&gt;AppModule</title>
<path fill="none" stroke="#000000" d="M1220.5838,-198.1061C1220.5838,-198.1061 1220.5838,-216.991 1220.5838,-216.991"/>
<polygon fill="#000000" stroke="#000000" points="1217.0839,-216.9909 1220.5838,-226.991 1224.0839,-216.991 1217.0839,-216.9909"/>
</g>
<!-- NotFoundComponent -->
<g id="node6" class="node">
<title>NotFoundComponent</title>
<polygon fill="#ffffb3" stroke="#000000" points="1101.1122,-198 962.8878,-198 962.8878,-162 1101.1122,-162 1101.1122,-198"/>
<text text-anchor="middle" x="1032" y="-175.8" font-family="Times,serif" font-size="14.00" fill="#000000">NotFoundComponent</text>
</g>
<!-- NotFoundComponent&#45;&gt;AppModule -->
<g id="edge6" class="edge">
<title>NotFoundComponent&#45;&gt;AppModule</title>
<path fill="none" stroke="#000000" d="M1032,-198.027C1032,-214.3976 1032,-236 1032,-236 1032,-236 1198.2253,-236 1198.2253,-236"/>
<polygon fill="#000000" stroke="#000000" points="1198.2254,-239.5001 1208.2253,-236 1198.2253,-232.5001 1198.2254,-239.5001"/>
</g>
<!-- AppComponent  -->
<g id="node10" class="node">
<title>AppComponent </title>
<polygon fill="#80b1d3" stroke="#000000" points="1304.439,-328 1195.561,-328 1195.561,-292 1304.439,-292 1304.439,-328"/>
<text text-anchor="middle" x="1250" y="-305.8" font-family="Times,serif" font-size="14.00" fill="#000000">AppComponent </text>
</g>
<!-- AppModule&#45;&gt;AppComponent  -->
<g id="edge9" class="edge">
<title>AppModule&#45;&gt;AppComponent </title>
<path fill="none" stroke="#000000" stroke-dasharray="1,5" d="M1250,-263.1061C1250,-263.1061 1250,-281.991 1250,-281.991"/>
<polygon fill="#000000" stroke="#000000" points="1246.5001,-281.9909 1250,-291.991 1253.5001,-281.991 1246.5001,-281.9909"/>
</g>
<!-- AppRoutingModule -->
<g id="node8" class="node">
<title>AppRoutingModule</title>
<polygon fill="#8dd3c7" stroke="#000000" points="939.2744,-198 936.2744,-202 915.2744,-202 912.2744,-198 810.7256,-198 810.7256,-162 939.2744,-162 939.2744,-198"/>
<text text-anchor="middle" x="875" y="-175.8" font-family="Times,serif" font-size="14.00" fill="#000000">AppRoutingModule</text>
</g>
<!-- AppRoutingModule&#45;&gt;AppModule -->
<g id="edge7" class="edge">
<title>AppRoutingModule&#45;&gt;AppModule</title>
<path fill="none" stroke="#000000" d="M875,-198.1061C875,-217.3391 875,-245 875,-245 875,-245 1198.0743,-245 1198.0743,-245"/>
<polygon fill="#000000" stroke="#000000" points="1198.0743,-248.5001 1208.0743,-245 1198.0743,-241.5001 1198.0743,-248.5001"/>
</g>
<!-- CoreModule -->
<g id="node9" class="node">
<title>CoreModule</title>
<polygon fill="#8dd3c7" stroke="#000000" points="792.2619,-198 789.2619,-202 768.2619,-202 765.2619,-198 705.7381,-198 705.7381,-162 792.2619,-162 792.2619,-198"/>
<text text-anchor="middle" x="749" y="-175.8" font-family="Times,serif" font-size="14.00" fill="#000000">CoreModule</text>
</g>
<!-- CoreModule&#45;&gt;AppModule -->
<g id="edge8" class="edge">
<title>CoreModule&#45;&gt;AppModule</title>
<path fill="none" stroke="#000000" d="M749,-198.2921C749,-220.2057 749,-254 749,-254 749,-254 1198.1467,-254 1198.1467,-254"/>
<polygon fill="#000000" stroke="#000000" points="1198.1468,-257.5001 1208.1467,-254 1198.1467,-250.5001 1198.1468,-257.5001"/>
</g>
<!-- ListViewComponent  -->
<g id="node15" class="node">
<title>ListViewComponent </title>
<polygon fill="#fb8072" stroke="#000000" points="817.4292,-122 680.5708,-122 680.5708,-86 817.4292,-86 817.4292,-122"/>
<text text-anchor="middle" x="749" y="-99.8" font-family="Times,serif" font-size="14.00" fill="#000000">ListViewComponent </text>
</g>
<!-- CoreModule&#45;&gt;ListViewComponent  -->
<g id="edge14" class="edge">
<title>CoreModule&#45;&gt;ListViewComponent </title>
<path fill="none" stroke="#000000" stroke-dasharray="5,2" d="M720.0795,-161.9891C720.0795,-161.9891 720.0795,-132.145 720.0795,-132.145"/>
<polygon fill="#000000" stroke="#000000" points="723.5796,-132.145 720.0795,-122.145 716.5796,-132.1451 723.5796,-132.145"/>
</g>
<!-- MostPopularComponent  -->
<g id="node16" class="node">
<title>MostPopularComponent </title>
<polygon fill="#fb8072" stroke="#000000" points="662.6607,-122 505.3393,-122 505.3393,-86 662.6607,-86 662.6607,-122"/>
<text text-anchor="middle" x="584" y="-99.8" font-family="Times,serif" font-size="14.00" fill="#000000">MostPopularComponent </text>
</g>
<!-- CoreModule&#45;&gt;MostPopularComponent  -->
<g id="edge15" class="edge">
<title>CoreModule&#45;&gt;MostPopularComponent </title>
<path fill="none" stroke="#000000" stroke-dasharray="5,2" d="M705.6482,-170C656.7615,-170 584,-170 584,-170 584,-170 584,-132.0348 584,-132.0348"/>
<polygon fill="#000000" stroke="#000000" points="587.5001,-132.0348 584,-122.0348 580.5001,-132.0348 587.5001,-132.0348"/>
</g>
<!-- SearchComponent  -->
<g id="node17" class="node">
<title>SearchComponent </title>
<polygon fill="#fb8072" stroke="#000000" points="487.4194,-122 364.5806,-122 364.5806,-86 487.4194,-86 487.4194,-122"/>
<text text-anchor="middle" x="426" y="-99.8" font-family="Times,serif" font-size="14.00" fill="#000000">SearchComponent </text>
</g>
<!-- CoreModule&#45;&gt;SearchComponent  -->
<g id="edge16" class="edge">
<title>CoreModule&#45;&gt;SearchComponent </title>
<path fill="none" stroke="#000000" stroke-dasharray="5,2" d="M705.4388,-177C617.2736,-177 426,-177 426,-177 426,-177 426,-132.0449 426,-132.0449"/>
<polygon fill="#000000" stroke="#000000" points="429.5001,-132.0449 426,-122.0449 422.5001,-132.045 429.5001,-132.0449"/>
</g>
<!-- SongCardComponent  -->
<g id="node18" class="node">
<title>SongCardComponent </title>
<polygon fill="#fb8072" stroke="#000000" points="346.3269,-122 205.6731,-122 205.6731,-86 346.3269,-86 346.3269,-122"/>
<text text-anchor="middle" x="276" y="-99.8" font-family="Times,serif" font-size="14.00" fill="#000000">SongCardComponent </text>
</g>
<!-- CoreModule&#45;&gt;SongCardComponent  -->
<g id="edge17" class="edge">
<title>CoreModule&#45;&gt;SongCardComponent </title>
<path fill="none" stroke="#000000" stroke-dasharray="5,2" d="M705.3491,-184C588.2539,-184 276,-184 276,-184 276,-184 276,-132.1532 276,-132.1532"/>
<polygon fill="#000000" stroke="#000000" points="279.5001,-132.1532 276,-122.1532 272.5001,-132.1533 279.5001,-132.1532"/>
</g>
<!-- ListViewComponent -->
<g id="node11" class="node">
<title>ListViewComponent</title>
<polygon fill="#ffffb3" stroke="#000000" points="1439.9299,-122 1306.0701,-122 1306.0701,-86 1439.9299,-86 1439.9299,-122"/>
<text text-anchor="middle" x="1373" y="-99.8" font-family="Times,serif" font-size="14.00" fill="#000000">ListViewComponent</text>
</g>
<!-- ListViewComponent&#45;&gt;CoreModule -->
<g id="edge10" class="edge">
<title>ListViewComponent&#45;&gt;CoreModule</title>
<path fill="none" stroke="#000000" d="M1352.884,-122.0511C1352.884,-136.373 1352.884,-154 1352.884,-154 1352.884,-154 777.9205,-154 777.9205,-154 777.9205,-154 777.9205,-154.7942 777.9205,-154.7942"/>
<polygon fill="#000000" stroke="#000000" points="774.4207,-151.9421 777.9205,-161.9421 781.4207,-151.9422 774.4207,-151.9421"/>
</g>
<!-- MostPopularComponent -->
<g id="node12" class="node">
<title>MostPopularComponent</title>
<polygon fill="#ffffb3" stroke="#000000" points="1287.661,-122 1134.339,-122 1134.339,-86 1287.661,-86 1287.661,-122"/>
<text text-anchor="middle" x="1211" y="-99.8" font-family="Times,serif" font-size="14.00" fill="#000000">MostPopularComponent</text>
</g>
<!-- MostPopularComponent&#45;&gt;CoreModule -->
<g id="edge11" class="edge">
<title>MostPopularComponent&#45;&gt;CoreModule</title>
<path fill="none" stroke="#000000" d="M1183.5828,-122.0555C1183.5828,-133.439 1183.5828,-146 1183.5828,-146 1183.5828,-146 763.4603,-146 763.4603,-146 763.4603,-146 763.4603,-151.8056 763.4603,-151.8056"/>
<polygon fill="#000000" stroke="#000000" points="759.9604,-151.8055 763.4603,-161.8056 766.9604,-151.8056 759.9604,-151.8055"/>
</g>
<!-- SearchComponent -->
<g id="node13" class="node">
<title>SearchComponent</title>
<polygon fill="#ffffb3" stroke="#000000" points="1115.9201,-122 996.0799,-122 996.0799,-86 1115.9201,-86 1115.9201,-122"/>
<text text-anchor="middle" x="1056" y="-99.8" font-family="Times,serif" font-size="14.00" fill="#000000">SearchComponent</text>
</g>
<!-- SearchComponent&#45;&gt;CoreModule -->
<g id="edge12" class="edge">
<title>SearchComponent&#45;&gt;CoreModule</title>
<path fill="none" stroke="#000000" d="M1048.6732,-122.1944C1048.6732,-130.2782 1048.6732,-138 1048.6732,-138 1048.6732,-138 749,-138 749,-138 749,-138 749,-151.9445 749,-151.9445"/>
<polygon fill="#000000" stroke="#000000" points="745.5001,-151.9444 749,-161.9445 752.5001,-151.9445 745.5001,-151.9444"/>
</g>
<!-- SongCardComponent -->
<g id="node14" class="node">
<title>SongCardComponent</title>
<polygon fill="#ffffb3" stroke="#000000" points="978.8272,-122 841.1728,-122 841.1728,-86 978.8272,-86 978.8272,-122"/>
<text text-anchor="middle" x="910" y="-99.8" font-family="Times,serif" font-size="14.00" fill="#000000">SongCardComponent</text>
</g>
<!-- SongCardComponent&#45;&gt;CoreModule -->
<g id="edge13" class="edge">
<title>SongCardComponent&#45;&gt;CoreModule</title>
<path fill="none" stroke="#000000" d="M890.3619,-122.0579C890.3619,-126.4945 890.3619,-130 890.3619,-130 890.3619,-130 734.5397,-130 734.5397,-130 734.5397,-130 734.5397,-151.9489 734.5397,-151.9489"/>
<polygon fill="#000000" stroke="#000000" points="731.0398,-151.9488 734.5397,-161.9489 738.0398,-151.9489 731.0398,-151.9488"/>
</g>
<!-- MusicApiService -->
<g id="node19" class="node">
<title>MusicApiService</title>
<ellipse fill="#fdb462" stroke="#000000" cx="103" cy="-104" rx="78.7279" ry="18"/>
<text text-anchor="middle" x="103" y="-99.8" font-family="Times,serif" font-size="14.00" fill="#000000">MusicApiService</text>
</g>
<!-- MusicApiService&#45;&gt;CoreModule -->
<g id="edge18" class="edge">
<title>MusicApiService&#45;&gt;CoreModule</title>
<path fill="none" stroke="#000000" d="M103,-122.0265C103,-147.5093 103,-191 103,-191 103,-191 695.611,-191 695.611,-191"/>
<polygon fill="#000000" stroke="#000000" points="695.6111,-194.5001 705.611,-191 695.611,-187.5001 695.6111,-194.5001"/>
</g>
</g>
</svg>
